<?xml version="1.0" encoding="UTF-8"?>
<svg width="700pt" height="700pt" fill="gray" version="1.1" viewBox="0 0 700 700" xmlns="http://www.w3.org/2000/svg">
 <g>
  <path d="m166.37 251.71h84.672c7.3984 0 14.121 3.0234 18.992 7.8906 4.8711 4.8672 7.8906 11.594 7.8906 18.992v160.03c0 7.4023-3.0234 14.121-7.8906 18.992-4.8672 4.8711-11.594 7.8906-18.992 7.8906h-84.672c-7.3984 0-14.121-3.0234-18.992-7.8906-4.8672-4.8672-7.8906-11.594-7.8906-18.992v-160.03c0-7.3984 3.0234-14.121 7.8906-18.992 4.8672-4.8711 11.59-7.8906 18.992-7.8906zm84.672 13.125h-84.672c-3.7773 0-7.2148 1.5508-9.7109 4.0469-2.4961 2.4961-4.0469 5.9336-4.0469 9.7109v160.03c0 3.7773 1.5508 7.2148 4.0469 9.7109 2.4961 2.4961 5.9336 4.0469 9.7109 4.0469h84.672c3.7773 0 7.2148-1.5508 9.7109-4.0469 2.4961-2.4961 4.0469-5.9336 4.0469-9.7109v-160.03c0-3.7773-1.5508-7.2148-4.0469-9.7109-2.4961-2.4961-5.9336-4.0469-9.7109-4.0469z"/>
  <path d="m267.32 265.79c-3.2578 1.5586-4.6328 5.4609-3.0781 8.7148 1.5586 3.2578 5.4609 4.6328 8.7148 3.0781 0.26172-0.125 90.082-41.77 76.93-170.38 18.184-3.3203 76.41-4.6367 51.172 123.25h-0.007813c-0.70312 3.5547 1.6133 7.0078 5.168 7.7109 0.91016 0.17969 1.8086 0.16016 2.6602-0.023437 10.809-1.3867 180-21.906 125.85 61.148l-0.015624-0.011719c-1.6719 2.5625-1.3203 5.8594 0.65234 8.0156 2.4688 3.2148 21.246 29.293-8.6211 43.824l-0.023438-0.003906c-3.0742 1.4961-4.457 5.0781-3.2695 8.2148 0.88672 2.6641 10.711 33.805-12.348 43.688l-0.019531-0.007813c-2.6836 1.1484-4.207 3.875-3.9492 6.6367-0.039062 5.4102-1.4688 48.879-38.234 43.875l0.003906-0.019531c-0.33594-0.046875-0.67188-0.066407-1-0.058594h-159.61l-33.93-18.66c-3.1719-1.7422-7.1523-0.58203-8.8945 2.5898-1.7422 3.1719-0.58203 7.1523 2.5898 8.8945l35.07 19.285c1.0156 0.64062 2.2148 1.0156 3.5039 1.0156h161.17c45.309 5.7383 51.473-39.211 52.289-53.387 23.652-13 20.008-41.074 17.227-52.883 31.887-18.73 17.473-47.363 10.758-57.668 56.176-92.039-93.703-82.332-132.51-78.406 27.742-156.93-67.762-130.43-74.414-128.4-3.1836 0.78516-5.3477 3.8438-4.9336 7.1758h0.003906c15.336 123.77-68.656 162.67-68.895 162.79z"/>
 </g>
</svg>
